<svg xmlns="http://www.w3.org/2000/svg" version="1.1" xmlns:xlink="http://www.w3.org/1999/xlink" xmlns:svgjs="http://svgjs.dev/svgjs" width="2000" height="2242" viewBox="0 0 2000 2242"><g transform="matrix(1,0,0,1,-3.1129669233097275,0)"><svg viewBox="0 0 321 360" data-background-color="#ffffff" preserveAspectRatio="xMidYMid meet" height="2242" width="2000" xmlns="http://www.w3.org/2000/svg" xmlns:xlink="http://www.w3.org/1999/xlink"><g id="tight-bounds" transform="matrix(1,0,0,1,0.5,0)"><svg viewBox="0 0 320 360" height="360" width="320"><rect width="320.0003688088088" height="360" fill="url(#b4736e26-3361-4530-983a-6044261ac33d)" mask="url(#807e106b-9e08-4d77-8545-ebab0f28a8c2)" data-fill-palette-color="tertiary"></rect><g><svg></svg></g><g><svg viewBox="0 0 320 360" height="360" width="320"><g><path d="M294.684 112.125c-8.775-10.699-25.381-16.201-43-22.006-7.56-2.498-15.357-5.097-22.985-8.235-7.695-3.173-15.256-7.257-22.613-11.172-14.952-8.033-30.41-16.336-46.105-16.336-15.661 0-31.119 8.303-46.071 16.336-7.358 3.949-14.952 8.033-22.648 11.205-7.594 3.139-15.425 5.704-22.985 8.236-17.618 5.839-34.224 11.341-42.999 22.006-11.712 14.277-11.442 35.439-11.172 57.817 0.034 3.375 0.068 6.717 0.067 10.024 0 3.308-0.034 6.649-0.101 10.024-0.27 22.411-0.54 43.54 11.172 57.851 8.775 10.666 25.381 16.167 42.966 22.006 7.56 2.498 15.357 5.097 23.019 8.235 7.695 3.173 15.256 7.223 22.579 11.172 14.986 8.067 30.444 16.37 46.105 16.37 15.695 0 31.153-8.303 46.105-16.336 7.358-3.949 14.918-8.033 22.614-11.172 7.594-3.139 15.357-5.704 22.884-8.202 17.72-5.873 34.326-11.374 43.101-22.039 11.712-14.277 11.442-35.439 11.171-57.817-0.034-3.409-0.101-6.75-0.101-10.058 0-3.308 0.034-6.649 0.101-9.991 0.371-22.479 0.641-43.641-11.104-57.918zM305.552 103.215c-15.728-19.171-45.801-23.727-71.486-34.326-22.985-9.45-46.375-28.588-74.051-28.587-27.676 0-51.066 19.137-74.052 28.587-25.719 10.598-55.758 15.155-71.486 34.326-17.078 20.791-14.311 50.121-14.311 76.785 0 26.63-2.768 55.994 14.277 76.785 15.728 19.171 45.801 23.727 71.487 34.326 22.985 9.484 46.375 28.588 74.051 28.587 27.676 0 51.066-19.103 74.051-28.587 25.719-10.598 55.758-15.155 71.486-34.326 17.045-20.791 14.277-50.121 14.277-76.785 0.068-26.664 2.835-55.994-14.243-76.785zM309.872 189.923c0.304 23.221 0.574 45.059-12.083 60.483-9.518 11.577-26.664 17.281-44.822 23.289-7.56 2.498-15.29 5.063-22.715 8.134-7.493 3.071-14.952 7.088-22.175 10.969-15.458 8.303-31.355 16.842-48.062 16.842-16.707 0-32.604-8.539-47.995-16.808-7.257-3.915-14.75-7.932-22.243-11.003-7.527-3.105-15.256-5.67-22.748-8.134-18.192-6.008-35.338-11.712-44.823-23.289-12.623-15.391-12.353-37.262-12.083-60.415 0.034-3.375 0.101-6.683 0.101-9.991 0-3.308-0.034-6.615-0.067-9.991-0.304-23.154-0.574-45.025 12.083-60.415 9.518-11.577 26.664-17.247 44.822-23.289 7.527-2.498 15.256-5.063 22.749-8.134 7.493-3.105 14.986-7.122 22.242-11.003 15.391-8.269 31.322-16.842 47.995-16.842 16.673 0 32.604 8.539 47.995 16.808 7.257 3.915 14.75 7.932 22.243 11.003 7.493 3.105 15.256 5.637 22.715 8.134 18.158 6.008 35.338 11.712 44.822 23.289 12.657 15.425 12.387 37.262 12.083 60.416-0.034 3.409-0.101 6.717-0.101 9.99 0 3.308 0.034 6.615 0.067 9.957z" fill="url(#b4736e26-3361-4530-983a-6044261ac33d)" fill-rule="nonzero" stroke="none" stroke-width="1" stroke-linecap="butt" stroke-linejoin="miter" stroke-miterlimit="10" stroke-dasharray="" stroke-dashoffset="0" font-family="none" font-weight="none" font-size="none" text-anchor="none" style="mix-blend-mode: normal" data-fill-palette-color="tertiary"></path></g><g transform="matrix(1,0,0,1,64,163.40795219489772)"><svg viewBox="0 0 192 33.18409561020455" height="33.18409561020455" width="192"><g><svg viewBox="0 0 192 33.18409561020455" height="33.18409561020455" width="192"><g><svg viewBox="0 0 192 33.18409561020455" height="33.18409561020455" width="192"><g id="textblocktransform"><svg viewBox="0 0 192 33.18409561020455" height="33.18409561020455" width="192" id="textblock"><g><svg viewBox="0 0 192 33.18409561020455" height="33.18409561020455" width="192"><g transform="matrix(1,0,0,1,0,0)"><svg width="192" viewBox="2.5 -37 217.53 37.6" height="33.18409561020455" data-palette-color="#001f3f"><path d="M17.95 0.6L17.95 0.6Q13.4 0.6 9.9-1.58 6.4-3.75 4.45-7.78 2.5-11.8 2.5-17.35L2.5-17.35Q2.5-22.7 4.48-26.83 6.45-30.95 10.08-33.27 13.7-35.6 18.55-35.6L18.55-35.6Q21.05-35.6 23.1-35.13 25.15-34.65 26.95-33.8L26.95-33.8 25.5-29.8Q23.95-30.55 22.33-31 20.7-31.45 18.5-31.45L18.5-31.45Q15.3-31.45 12.78-29.8 10.25-28.15 8.8-25.05 7.35-21.95 7.35-17.55L7.35-17.55Q7.35-13.35 8.78-10.2 10.2-7.05 12.73-5.3 15.25-3.55 18.5-3.55L18.5-3.55Q20.95-3.55 22.75-4.15 24.55-4.75 26.25-5.7L26.25-5.7 27.7-1.75Q25.85-0.75 23.48-0.08 21.1 0.6 17.95 0.6ZM43.15 0.6L43.15 0.6Q39.45 0.6 36.5-1.13 33.55-2.85 31.87-5.93 30.2-9 30.2-13L30.2-13Q30.2-17.2 31.9-20.25 33.6-23.3 36.55-24.95 39.5-26.6 43.15-26.6L43.15-26.6Q46.8-26.6 49.72-24.95 52.65-23.3 54.37-20.28 56.1-17.25 56.1-13.1L56.1-13.1Q56.1-8.95 54.4-5.88 52.7-2.8 49.77-1.1 46.85 0.6 43.15 0.6ZM43.15-3.4L43.15-3.4Q47.1-3.4 49.3-6.08 51.5-8.75 51.5-13L51.5-13Q51.5-15.6 50.4-17.78 49.3-19.95 47.42-21.28 45.55-22.6 43.15-22.6L43.15-22.6Q39.2-22.6 37-20 34.8-17.4 34.8-13.1L34.8-13.1Q34.8-10.5 35.9-8.28 37-6.05 38.87-4.73 40.75-3.4 43.15-3.4ZM71.95 0.6L71.95 0.6Q68.75 0.6 66.09-1.05 63.45-2.7 61.9-5.73 60.35-8.75 60.35-12.85L60.35-12.85Q60.35-16.8 61.92-19.9 63.5-23 66.12-24.8 68.75-26.6 71.9-26.6L71.9-26.6Q74.5-26.6 76.37-25.55 78.25-24.5 79.3-23.4L79.3-23.4 79.3-37 83.8-37 83.8-6.3Q83.8-4.4 84.72-3.83 85.65-3.25 86.75-3.25L86.75-3.25 85.8 0.25Q81.05 0.25 80-3.55L80-3.55Q78.9-2 76.92-0.7 74.95 0.6 71.95 0.6ZM72.95-3.4L72.95-3.4Q74.8-3.4 76.47-4.28 78.15-5.15 79.3-6.55L79.3-6.55 79.3-19.45Q78.34-20.65 76.65-21.68 74.95-22.7 72.9-22.7L72.9-22.7Q70.5-22.7 68.7-21.4 66.9-20.1 65.92-17.93 64.95-15.75 64.95-13L64.95-13Q64.95-10.25 66-8.08 67.05-5.9 68.87-4.65 70.7-3.4 72.95-3.4ZM102.64 0.6L102.64 0.6Q97.04 0.6 93.77-2.98 90.49-6.55 90.49-13L90.49-13Q90.49-16.9 91.97-19.98 93.44-23.05 96.09-24.83 98.74-26.6 102.24-26.6L102.24-26.6Q105.99-26.6 108.47-24.98 110.94-23.35 112.19-20.6 113.44-17.85 113.44-14.55L113.44-14.55Q113.44-12.8 113.29-11.15L113.29-11.15 95.09-11.15Q95.54-7.5 97.64-5.45 99.74-3.4 103.19-3.4L103.19-3.4Q105.44-3.4 107.24-3.88 109.04-4.35 110.69-5.1L110.69-5.1 111.74-1.25Q109.94-0.45 107.69 0.08 105.44 0.6 102.64 0.6ZM95.04-14.8L95.04-14.8 109.29-14.8Q109.29-18.6 107.39-20.65 105.49-22.7 102.14-22.7L102.14-22.7Q99.24-22.7 97.34-20.68 95.44-18.65 95.04-14.8ZM127.19 0L122.44 0 122.44-30.8 111.69-30.8 111.69-35 137.94-35 137.94-30.8 127.19-30.8 127.19 0ZM147.44 0.6L147.44 0.6Q145.19 0.6 143.19-0.35 141.19-1.3 139.94-3.43 138.69-5.55 138.69-9.1L138.69-9.1 138.69-26 143.19-26 143.19-9.7Q143.19-6.65 144.49-5.03 145.79-3.4 148.29-3.4L148.29-3.4Q150.34-3.4 152.26-4.23 154.19-5.05 155.69-6.45L155.69-6.45 155.69-26 160.19-26 160.19-6.75Q160.19-4.6 161.11-3.93 162.04-3.25 163.14-3.25L163.14-3.25 162.19 0.25Q157.54 0.25 156.44-3.45L156.44-3.45Q154.69-1.65 152.39-0.53 150.09 0.6 147.44 0.6ZM180.83 0.6L180.83 0.6Q178.58 0.6 176.61-0.23 174.63-1.05 173.33-2.15L173.33-2.15 173.33 0 169.13 0 169.13-37 173.63-37 173.63-23.3Q174.63-24.45 176.56-25.53 178.48-26.6 181.13-26.6L181.13-26.6Q184.13-26.6 186.76-25.03 189.38-23.45 190.98-20.48 192.58-17.5 192.58-13.25L192.58-13.25Q192.58-10.15 191.58-7.6 190.58-5.05 188.91-3.23 187.23-1.4 185.13-0.4 183.03 0.6 180.83 0.6ZM179.63-3.4L179.63-3.4Q182.08-3.4 183.96-4.6 185.83-5.8 186.91-8 187.98-10.2 187.98-13.1L187.98-13.1Q187.98-16.1 186.91-18.25 185.83-20.4 184.06-21.55 182.28-22.7 180.13-22.7L180.13-22.7Q177.98-22.7 176.26-21.63 174.53-20.55 173.63-19.3L173.63-19.3 173.63-5.4Q174.78-4.5 176.33-3.95 177.88-3.4 179.63-3.4ZM209.23 0.6L209.23 0.6Q203.63 0.6 200.36-2.98 197.08-6.55 197.08-13L197.08-13Q197.08-16.9 198.56-19.98 200.03-23.05 202.68-24.83 205.33-26.6 208.83-26.6L208.83-26.6Q212.58-26.6 215.06-24.98 217.53-23.35 218.78-20.6 220.03-17.85 220.03-14.55L220.03-14.55Q220.03-12.8 219.88-11.15L219.88-11.15 201.68-11.15Q202.13-7.5 204.23-5.45 206.33-3.4 209.78-3.4L209.78-3.4Q212.03-3.4 213.83-3.88 215.63-4.35 217.28-5.1L217.28-5.1 218.33-1.25Q216.53-0.45 214.28 0.08 212.03 0.6 209.23 0.6ZM201.63-14.8L201.63-14.8 215.88-14.8Q215.88-18.6 213.98-20.65 212.08-22.7 208.73-22.7L208.73-22.7Q205.83-22.7 203.93-20.68 202.03-18.65 201.63-14.8Z" opacity="1" transform="matrix(1,0,0,1,0,0)" fill="#001f3f" class="wordmark-text-0" data-fill-palette-color="quaternary" id="text-0"></path></svg></g></svg></g></svg></g></svg></g><g></g></svg></g></svg></g></svg></g><defs></defs><mask id="807e106b-9e08-4d77-8545-ebab0f28a8c2"><g id="SvgjsG1004"><svg viewBox="0 0 320 360" height="360" width="320"><g><svg></svg></g><g><svg viewBox="0 0 320 360" height="360" width="320"><g><path d="M294.684 112.125c-8.775-10.699-25.381-16.201-43-22.006-7.56-2.498-15.357-5.097-22.985-8.235-7.695-3.173-15.256-7.257-22.613-11.172-14.952-8.033-30.41-16.336-46.105-16.336-15.661 0-31.119 8.303-46.071 16.336-7.358 3.949-14.952 8.033-22.648 11.205-7.594 3.139-15.425 5.704-22.985 8.236-17.618 5.839-34.224 11.341-42.999 22.006-11.712 14.277-11.442 35.439-11.172 57.817 0.034 3.375 0.068 6.717 0.067 10.024 0 3.308-0.034 6.649-0.101 10.024-0.27 22.411-0.54 43.54 11.172 57.851 8.775 10.666 25.381 16.167 42.966 22.006 7.56 2.498 15.357 5.097 23.019 8.235 7.695 3.173 15.256 7.223 22.579 11.172 14.986 8.067 30.444 16.37 46.105 16.37 15.695 0 31.153-8.303 46.105-16.336 7.358-3.949 14.918-8.033 22.614-11.172 7.594-3.139 15.357-5.704 22.884-8.202 17.72-5.873 34.326-11.374 43.101-22.039 11.712-14.277 11.442-35.439 11.171-57.817-0.034-3.409-0.101-6.75-0.101-10.058 0-3.308 0.034-6.649 0.101-9.991 0.371-22.479 0.641-43.641-11.104-57.918zM305.552 103.215c-15.728-19.171-45.801-23.727-71.486-34.326-22.985-9.45-46.375-28.588-74.051-28.587-27.676 0-51.066 19.137-74.052 28.587-25.719 10.598-55.758 15.155-71.486 34.326-17.078 20.791-14.311 50.121-14.311 76.785 0 26.63-2.768 55.994 14.277 76.785 15.728 19.171 45.801 23.727 71.487 34.326 22.985 9.484 46.375 28.588 74.051 28.587 27.676 0 51.066-19.103 74.051-28.587 25.719-10.598 55.758-15.155 71.486-34.326 17.045-20.791 14.277-50.121 14.277-76.785 0.068-26.664 2.835-55.994-14.243-76.785zM309.872 189.923c0.304 23.221 0.574 45.059-12.083 60.483-9.518 11.577-26.664 17.281-44.822 23.289-7.56 2.498-15.29 5.063-22.715 8.134-7.493 3.071-14.952 7.088-22.175 10.969-15.458 8.303-31.355 16.842-48.062 16.842-16.707 0-32.604-8.539-47.995-16.808-7.257-3.915-14.75-7.932-22.243-11.003-7.527-3.105-15.256-5.67-22.748-8.134-18.192-6.008-35.338-11.712-44.823-23.289-12.623-15.391-12.353-37.262-12.083-60.415 0.034-3.375 0.101-6.683 0.101-9.991 0-3.308-0.034-6.615-0.067-9.991-0.304-23.154-0.574-45.025 12.083-60.415 9.518-11.577 26.664-17.247 44.822-23.289 7.527-2.498 15.256-5.063 22.749-8.134 7.493-3.105 14.986-7.122 22.242-11.003 15.391-8.269 31.322-16.842 47.995-16.842 16.673 0 32.604 8.539 47.995 16.808 7.257 3.915 14.75 7.932 22.243 11.003 7.493 3.105 15.256 5.637 22.715 8.134 18.158 6.008 35.338 11.712 44.822 23.289 12.657 15.425 12.387 37.262 12.083 60.416-0.034 3.409-0.101 6.717-0.101 9.99 0 3.308 0.034 6.615 0.067 9.957z" fill="white" fill-rule="nonzero" stroke="none" stroke-width="1" stroke-linecap="butt" stroke-linejoin="miter" stroke-miterlimit="10" stroke-dasharray="" stroke-dashoffset="0" font-family="none" font-weight="none" font-size="none" text-anchor="none" style="mix-blend-mode: normal"></path></g><g transform="matrix(1,0,0,1,64,163.40795219489772)"><svg viewBox="0 0 192 33.18409561020455" height="33.18409561020455" width="192"><g><svg viewBox="0 0 192 33.18409561020455" height="33.18409561020455" width="192"><g><svg viewBox="0 0 192 33.18409561020455" height="33.18409561020455" width="192"><g id="SvgjsG1003"><svg viewBox="0 0 192 33.18409561020455" height="33.18409561020455" width="192" id="SvgjsSvg1002"><g><svg viewBox="0 0 192 33.18409561020455" height="33.18409561020455" width="192"><g transform="matrix(1,0,0,1,0,0)"><svg width="192" viewBox="2.5 -37 217.53 37.6" height="33.18409561020455" data-palette-color="#001f3f"><path d="M17.95 0.6L17.95 0.6Q13.4 0.6 9.9-1.58 6.4-3.75 4.45-7.78 2.5-11.8 2.5-17.35L2.5-17.35Q2.5-22.7 4.48-26.83 6.45-30.95 10.08-33.27 13.7-35.6 18.55-35.6L18.55-35.6Q21.05-35.6 23.1-35.13 25.15-34.65 26.95-33.8L26.95-33.8 25.5-29.8Q23.95-30.55 22.33-31 20.7-31.45 18.5-31.45L18.5-31.45Q15.3-31.45 12.78-29.8 10.25-28.15 8.8-25.05 7.35-21.95 7.35-17.55L7.35-17.55Q7.35-13.35 8.78-10.2 10.2-7.05 12.73-5.3 15.25-3.55 18.5-3.55L18.5-3.55Q20.95-3.55 22.75-4.15 24.55-4.75 26.25-5.7L26.25-5.7 27.7-1.75Q25.85-0.75 23.48-0.08 21.1 0.6 17.95 0.6ZM43.15 0.6L43.15 0.6Q39.45 0.6 36.5-1.13 33.55-2.85 31.87-5.93 30.2-9 30.2-13L30.2-13Q30.2-17.2 31.9-20.25 33.6-23.3 36.55-24.95 39.5-26.6 43.15-26.6L43.15-26.6Q46.8-26.6 49.72-24.95 52.65-23.3 54.37-20.28 56.1-17.25 56.1-13.1L56.1-13.1Q56.1-8.95 54.4-5.88 52.7-2.8 49.77-1.1 46.85 0.6 43.15 0.6ZM43.15-3.4L43.15-3.4Q47.1-3.4 49.3-6.08 51.5-8.75 51.5-13L51.5-13Q51.5-15.6 50.4-17.78 49.3-19.95 47.42-21.28 45.55-22.6 43.15-22.6L43.15-22.6Q39.2-22.6 37-20 34.8-17.4 34.8-13.1L34.8-13.1Q34.8-10.5 35.9-8.28 37-6.05 38.87-4.73 40.75-3.4 43.15-3.4ZM71.95 0.6L71.95 0.6Q68.75 0.6 66.09-1.05 63.45-2.7 61.9-5.73 60.35-8.75 60.35-12.85L60.35-12.85Q60.35-16.8 61.92-19.9 63.5-23 66.12-24.8 68.75-26.6 71.9-26.6L71.9-26.6Q74.5-26.6 76.37-25.55 78.25-24.5 79.3-23.4L79.3-23.4 79.3-37 83.8-37 83.8-6.3Q83.8-4.4 84.72-3.83 85.65-3.25 86.75-3.25L86.75-3.25 85.8 0.25Q81.05 0.25 80-3.55L80-3.55Q78.9-2 76.92-0.7 74.95 0.6 71.95 0.6ZM72.95-3.4L72.95-3.4Q74.8-3.4 76.47-4.28 78.15-5.15 79.3-6.55L79.3-6.55 79.3-19.45Q78.34-20.65 76.65-21.68 74.95-22.7 72.9-22.7L72.9-22.7Q70.5-22.7 68.7-21.4 66.9-20.1 65.92-17.93 64.95-15.75 64.95-13L64.95-13Q64.95-10.25 66-8.08 67.05-5.9 68.87-4.65 70.7-3.4 72.95-3.4ZM102.64 0.6L102.64 0.6Q97.04 0.6 93.77-2.98 90.49-6.55 90.49-13L90.49-13Q90.49-16.9 91.97-19.98 93.44-23.05 96.09-24.83 98.74-26.6 102.24-26.6L102.24-26.6Q105.99-26.6 108.47-24.98 110.94-23.35 112.19-20.6 113.44-17.85 113.44-14.55L113.44-14.55Q113.44-12.8 113.29-11.15L113.29-11.15 95.09-11.15Q95.54-7.5 97.64-5.45 99.74-3.4 103.19-3.4L103.19-3.4Q105.44-3.4 107.24-3.88 109.04-4.35 110.69-5.1L110.69-5.1 111.74-1.25Q109.94-0.45 107.69 0.08 105.44 0.6 102.64 0.6ZM95.04-14.8L95.04-14.8 109.29-14.8Q109.29-18.6 107.39-20.65 105.49-22.7 102.14-22.7L102.14-22.7Q99.24-22.7 97.34-20.68 95.44-18.65 95.04-14.8ZM127.19 0L122.44 0 122.44-30.8 111.69-30.8 111.69-35 137.94-35 137.94-30.8 127.19-30.8 127.19 0ZM147.44 0.6L147.44 0.6Q145.19 0.6 143.19-0.35 141.19-1.3 139.94-3.43 138.69-5.55 138.69-9.1L138.69-9.1 138.69-26 143.19-26 143.19-9.7Q143.19-6.65 144.49-5.03 145.79-3.4 148.29-3.4L148.29-3.4Q150.34-3.4 152.26-4.23 154.19-5.05 155.69-6.45L155.69-6.45 155.69-26 160.19-26 160.19-6.75Q160.19-4.6 161.11-3.93 162.04-3.25 163.14-3.25L163.14-3.25 162.19 0.25Q157.54 0.25 156.44-3.45L156.44-3.45Q154.69-1.65 152.39-0.53 150.09 0.6 147.44 0.6ZM180.83 0.6L180.83 0.6Q178.58 0.6 176.61-0.23 174.63-1.05 173.33-2.15L173.33-2.15 173.33 0 169.13 0 169.13-37 173.63-37 173.63-23.3Q174.63-24.45 176.56-25.53 178.48-26.6 181.13-26.6L181.13-26.6Q184.13-26.6 186.76-25.03 189.38-23.45 190.98-20.48 192.58-17.5 192.58-13.25L192.58-13.25Q192.58-10.15 191.58-7.6 190.58-5.05 188.91-3.23 187.23-1.4 185.13-0.4 183.03 0.6 180.83 0.6ZM179.63-3.4L179.63-3.4Q182.08-3.4 183.96-4.6 185.83-5.8 186.91-8 187.98-10.2 187.98-13.1L187.98-13.1Q187.98-16.1 186.91-18.25 185.83-20.4 184.06-21.55 182.28-22.7 180.13-22.7L180.13-22.7Q177.98-22.7 176.26-21.63 174.53-20.55 173.63-19.3L173.63-19.3 173.63-5.4Q174.78-4.5 176.33-3.95 177.88-3.4 179.63-3.4ZM209.23 0.6L209.23 0.6Q203.63 0.6 200.36-2.98 197.08-6.55 197.08-13L197.08-13Q197.08-16.9 198.56-19.98 200.03-23.05 202.68-24.83 205.33-26.6 208.83-26.6L208.83-26.6Q212.58-26.6 215.06-24.98 217.53-23.35 218.78-20.6 220.03-17.85 220.03-14.55L220.03-14.55Q220.03-12.8 219.88-11.15L219.88-11.15 201.68-11.15Q202.13-7.5 204.23-5.45 206.33-3.4 209.78-3.4L209.78-3.4Q212.03-3.4 213.83-3.88 215.63-4.35 217.28-5.1L217.28-5.1 218.33-1.25Q216.53-0.45 214.28 0.08 212.03 0.6 209.23 0.6ZM201.63-14.8L201.63-14.8 215.88-14.8Q215.88-18.6 213.98-20.65 212.08-22.7 208.73-22.7L208.73-22.7Q205.83-22.7 203.93-20.68 202.03-18.65 201.63-14.8Z" opacity="1" transform="matrix(1,0,0,1,0,0)" fill="black" class="wordmark-text-0" id="SvgjsPath1001"></path></svg></g></svg></g></svg></g></svg></g><g></g></svg></g></svg></g></svg></g><defs><mask></mask></defs></svg><rect width="320" height="360" fill="black" stroke="none" visibility="hidden"></rect></g></mask><linearGradient x1="0" x2="1" y1="0.578" y2="0.595" id="b4736e26-3361-4530-983a-6044261ac33d"><stop stop-color="#6ee2f5" offset="0"></stop><stop stop-color="#6454f0" offset="1"></stop></linearGradient></svg><rect width="320" height="360" fill="none" stroke="none" visibility="hidden"></rect></g></svg></g></svg>