<svg xmlns="http://www.w3.org/2000/svg" fill="none" viewBox="0 0 1024 1024">
  <g filter="url(#a)">
    <rect width="824" height="824" x="100" y="100" fill="url(#b)" rx="184"/>
  </g>
  <g filter="url(#c)">
    <path fill="url(#d)" d="M511.5 864C706.18 864 864 706.18 864 511.5S706.18 159 511.5 159 159 316.82 159 511.5 316.82 864 511.5 864Z"/>
    <path fill="url(#e)" d="M511.5 864C706.18 864 864 706.18 864 511.5S706.18 159 511.5 159 159 316.82 159 511.5 316.82 864 511.5 864Z"/>
  </g>
  <g filter="url(#f)">
    <mask id="h" width="619" height="619" x="202" y="202" maskUnits="userSpaceOnUse" style="mask-type:alpha">
      <path fill="url(#g)" d="M511.5 820.554c170.686 0 309.054-138.368 309.054-309.054 0-170.686-138.368-309.054-309.054-309.054-170.686 0-309.054 138.368-309.054 309.054 0 170.686 138.368 309.054 309.054 309.054Z"/>
    </mask>
    <g mask="url(#h)">
      <path fill="url(#i)" d="M393.052 179.699H200.626v662.139h192.426V179.699Zm216.237 0H428.386v494.189h180.903V179.699Zm220.39 0H644.623v381.292h185.056V179.699Z"/>
    </g>
  </g>
  <defs>
    <linearGradient id="b" x1="901.988" x2="227.651" y1="805.985" y2="180.123" gradientUnits="userSpaceOnUse">
      <stop stop-color="#208DC5"/>
      <stop offset="1" stop-color="#16C58D"/>
    </linearGradient>
    <linearGradient id="d" x1="568.122" x2="611.489" y1="496.818" y2="841.852" gradientUnits="userSpaceOnUse">
      <stop stop-color="#fff"/>
      <stop offset="1" stop-color="#fff" stop-opacity=".67"/>
    </linearGradient>
    <linearGradient id="e" x1="511.5" x2="511.5" y1="159" y2="864" gradientUnits="userSpaceOnUse">
      <stop stop-color="#fff"/>
      <stop offset="1" stop-color="#fff" stop-opacity="0"/>
    </linearGradient>
    <linearGradient id="g" x1="561.144" x2="599.165" y1="498.627" y2="801.136" gradientUnits="userSpaceOnUse">
      <stop stop-color="#fff"/>
      <stop offset="1" stop-color="#fff" stop-opacity=".851"/>
    </linearGradient>
    <linearGradient id="i" x1="833.299" x2="196.133" y1="526.733" y2="524.109" gradientUnits="userSpaceOnUse">
      <stop stop-color="#208DC5"/>
      <stop offset=".3065" stop-color="#208DC5"/>
      <stop offset=".3175" stop-color="#1BAAA8"/>
      <stop offset=".6499" stop-color="#1BA9A9"/>
      <stop offset=".6632" stop-color="#16C58D"/>
      <stop offset="1" stop-color="#16C58D"/>
    </linearGradient>
    <filter id="a" width="868" height="868" x="78" y="89" color-interpolation-filters="sRGB" filterUnits="userSpaceOnUse">
      <feFlood flood-opacity="0" result="BackgroundImageFix"/>
      <feColorMatrix in="SourceAlpha" result="hardAlpha" values="0 0 0 0 0 0 0 0 0 0 0 0 0 0 0 0 0 0 127 0"/>
      <feOffset dy="11"/>
      <feGaussianBlur stdDeviation="11"/>
      <feColorMatrix values="0 0 0 0 0 0 0 0 0 0 0 0 0 0 0 0 0 0 0.28 0"/>
      <feBlend in2="BackgroundImageFix" result="effect1_dropShadow_2_980"/>
      <feBlend in="SourceGraphic" in2="effect1_dropShadow_2_980" result="shape"/>
    </filter>
    <filter id="c" width="755" height="755" x="134" y="149" color-interpolation-filters="sRGB" filterUnits="userSpaceOnUse">
      <feFlood flood-opacity="0" result="BackgroundImageFix"/>
      <feColorMatrix in="SourceAlpha" result="hardAlpha" values="0 0 0 0 0 0 0 0 0 0 0 0 0 0 0 0 0 0 127 0"/>
      <feOffset dy="15"/>
      <feGaussianBlur stdDeviation="12.5"/>
      <feColorMatrix values="0 0 0 0 0 0 0 0 0 0 0 0 0 0 0 0 0 0 0.25 0"/>
      <feBlend in2="BackgroundImageFix" result="effect1_dropShadow_2_980"/>
      <feBlend in="SourceGraphic" in2="effect1_dropShadow_2_980" result="shape"/>
    </filter>
    <filter id="f" width="618.108" height="637.108" x="202.446" y="198.446" color-interpolation-filters="sRGB" filterUnits="userSpaceOnUse">
      <feFlood flood-opacity="0" result="BackgroundImageFix"/>
      <feBlend in="SourceGraphic" in2="BackgroundImageFix" result="shape"/>
      <feColorMatrix in="SourceAlpha" result="hardAlpha" values="0 0 0 0 0 0 0 0 0 0 0 0 0 0 0 0 0 0 127 0"/>
      <feOffset dy="15"/>
      <feGaussianBlur stdDeviation="12.5"/>
      <feComposite in2="hardAlpha" k2="-1" k3="1" operator="arithmetic"/>
      <feColorMatrix values="0 0 0 0 0 0 0 0 0 0 0 0 0 0 0 0 0 0 0.15 0"/>
      <feBlend in2="shape" result="effect1_innerShadow_2_980"/>
      <feColorMatrix in="SourceAlpha" result="hardAlpha" values="0 0 0 0 0 0 0 0 0 0 0 0 0 0 0 0 0 0 127 0"/>
      <feOffset dy="-4"/>
      <feGaussianBlur stdDeviation="2"/>
      <feComposite in2="hardAlpha" k2="-1" k3="1" operator="arithmetic"/>
      <feColorMatrix values="0 0 0 0 1 0 0 0 0 1 0 0 0 0 1 0 0 0 0.25 0"/>
      <feBlend in2="effect1_innerShadow_2_980" result="effect2_innerShadow_2_980"/>
    </filter>
  </defs>
</svg>
